# xmcd
#
# Track frame offsets:
#        187
#        28930
#        50950
#        68705
#        79015
#        90567
#        111595
#        119497
#        134742
#        153812
#        172707
#        191300
#        209057
#
# Disc length: 3028 seconds
#
# Revision: 0
# Processed by: cddbd v1.5.1PL0 Copyright (c) Steve Scherf et al.
# Submitted via: ExactAudioCopy v0.95a5
#
DISCID=ba0bd20d
DTITLE=Amanda Mcbroom - Midnight MATINEE
DYEAR=1991
DGENRE=Vocal
TTITLE0=Crimes Of The Heart
TTITLE1=Fool For Love
TTITLE2=Ghost In This House
TTITLE3=Baby
TTITLE4=I Can Let Go Now
TTITLE5=Not Like Me
TTITLE6=Ojos Brujos
TTITLE7=Evolution
TTITLE8=Best Friend
TTITLE9=Make Me A Kite
TTITLE10=Sweet Dreams
TTITLE11=Here And Now
TTITLE12=The Rose
EXTD=
EXTT0=
EXTT1=
EXTT2=
EXTT3=
EXTT4=
EXTT5=
EXTT6=
EXTT7=
EXTT8=
EXTT9=
EXTT10=
EXTT11=
EXTT12=
PLAYORDER=
